<?xml version="1.0" encoding="UTF-8" standalone="no"?>
<!-- Created with Inkscape (http://www.inkscape.org/) -->

<svg
   version="1.1"
   id="svg1"
   width="343.98267"
   height="313.98401"
   viewBox="0 0 343.98267 313.98401"
   sodipodi:docname="BSR-white.svg"
   inkscape:version="1.4.3 (0d15f75042, 2025-12-25)"
   xmlns:inkscape="http://www.inkscape.org/namespaces/inkscape"
   xmlns:sodipodi="http://sodipodi.sourceforge.net/DTD/sodipodi-0.dtd"
   xmlns="http://www.w3.org/2000/svg"
   xmlns:svg="http://www.w3.org/2000/svg">
  <defs
     id="defs1">
    <linearGradient
       x1="0"
       y1="0"
       x2="1"
       y2="0"
       gradientUnits="userSpaceOnUse"
       gradientTransform="matrix(122.39941,0,0,-122.39941,72.001953,112.22852)"
       spreadMethod="pad"
       id="linearGradient5">
      <stop
         style="stop-opacity:1;stop-color:#d31820"
         offset="0"
         id="stop1" />
      <stop
         style="stop-opacity:1;stop-color:#d31820"
         offset="0"
         id="stop2" />
      <stop
         style="stop-opacity:1;stop-color:#d31820"
         offset="0"
         id="stop3" />
      <stop
         style="stop-opacity:1;stop-color:#711a12"
         offset="0.993866"
         id="stop4" />
      <stop
         style="stop-opacity:1;stop-color:#711a12"
         offset="1"
         id="stop5" />
    </linearGradient>
    <linearGradient
       x1="0"
       y1="0"
       x2="1"
       y2="0"
       gradientUnits="userSpaceOnUse"
       gradientTransform="matrix(6.0947266,0,0,-6.0947266,77.65625,62.302734)"
       spreadMethod="pad"
       id="linearGradient48">
      <stop
         style="stop-opacity:1;stop-color:#d31820"
         offset="0"
         id="stop44" />
      <stop
         style="stop-opacity:1;stop-color:#d31820"
         offset="0"
         id="stop45" />
      <stop
         style="stop-opacity:1;stop-color:#d31820"
         offset="0"
         id="stop46" />
      <stop
         style="stop-opacity:1;stop-color:#711a12"
         offset="0.993866"
         id="stop47" />
      <stop
         style="stop-opacity:1;stop-color:#711a12"
         offset="1"
         id="stop48" />
    </linearGradient>
    <linearGradient
       x1="0"
       y1="0"
       x2="1"
       y2="0"
       gradientUnits="userSpaceOnUse"
       gradientTransform="matrix(6.0957031,0,0,-6.0957031,183.87891,64.27832)"
       spreadMethod="pad"
       id="linearGradient53">
      <stop
         style="stop-opacity:1;stop-color:#d31820"
         offset="0"
         id="stop49" />
      <stop
         style="stop-opacity:1;stop-color:#d31820"
         offset="0"
         id="stop50" />
      <stop
         style="stop-opacity:1;stop-color:#d31820"
         offset="0"
         id="stop51" />
      <stop
         style="stop-opacity:1;stop-color:#711a12"
         offset="0.993866"
         id="stop52" />
      <stop
         style="stop-opacity:1;stop-color:#711a12"
         offset="1"
         id="stop53" />
    </linearGradient>
  </defs>
  <sodipodi:namedview
     id="namedview1"
     pagecolor="#ffffff"
     bordercolor="#999999"
     borderopacity="1"
     inkscape:showpageshadow="2"
     inkscape:pageopacity="0"
     inkscape:pagecheckerboard="true"
     inkscape:deskcolor="#d1d1d1"
     inkscape:zoom="2.5988585"
     inkscape:cx="97.92761"
     inkscape:cy="146.60283"
     inkscape:window-width="1914"
     inkscape:window-height="1027"
     inkscape:window-x="1050"
     inkscape:window-y="224"
     inkscape:window-maximized="1"
     inkscape:current-layer="g1">
    <inkscape:page
       x="0"
       y="0"
       inkscape:label="1"
       id="page1"
       width="343.98267"
       height="313.98401"
       margin="30.294266 48.029335 47.002666 59.264267"
       bleed="0" />
  </sodipodi:namedview>
  <g
     id="g1"
     inkscape:groupmode="layer"
     inkscape:label="1"
     style="display:inline">
    <path
       id="path1"
       d="m 0,0 c -46.782,0 -84.842,-38.059 -84.842,-84.841 0,-46.779 38.06,-84.839 84.842,-84.839 46.78,0 84.84,38.06 84.84,84.839 C 84.84,-38.059 46.78,0 0,0 m 0,-173.598 c -48.942,0 -88.759,39.816 -88.759,88.757 0,48.943 39.817,88.759 88.759,88.759 48.941,0 88.758,-39.816 88.758,-88.759 0,-48.941 -39.817,-88.757 -88.758,-88.757"
       style="display:inline;fill:#2c5dab;fill-opacity:1;fill-rule:nonzero;stroke:none"
       transform="matrix(1.3333333,0,0,-1.3333333,177.60933,52.226133)" />
    <path
       id="path5"
       style="display:inline;fill:url(#linearGradient5);stroke:none"
       d="m 133.20264,172.92746 c -33.528775,0 -60.700197,-27.16997 -60.700197,-60.69873 0,-33.530786 27.171402,-60.698737 60.700197,-60.698737 33.52678,0 60.69873,27.167961 60.69873,60.698737 0,33.52875 -27.17197,60.69873 -60.69873,60.69873 z m -0.23437,-6.26514 c 30.14322,0 54.58886,-24.44711 54.58886,-54.59033 0,-30.143225 -24.44566,-54.587407 -54.58886,-54.587407 -30.14519,0 -54.590338,24.444205 -54.590338,54.587407 0,30.1432 24.445128,54.59033 54.590338,54.59033 z m 0,-1.00049 c -29.6048,0 -53.58985,-23.98704 -53.58985,-53.58984 0,-29.602804 23.98503,-53.586918 53.58985,-53.586918 29.6028,0 53.58984,23.984137 53.58984,53.586918 0,29.60278 -23.98707,53.58984 -53.58984,53.58984 z m 0.55078,-14.69385 h 0.86572 c 3.299,0 4.59767,-0.0669 7.76367,-1.39892 7.946,-3.34 10.39776,-10.92922 12.40576,-19.42822 l -6.34277,-2.40967 c -1.469,10.34 -5.35266,13.42133 -7.45166,14.56933 -2.258,1.234 -4.75072,1.85743 -7.40772,1.85743 -3.443,0 -6.30774,-0.97161 -8.51074,-2.89161 -0.289,-0.253 -0.50825,-0.53666 -0.76025,-0.80566 -2.584,0.742 -5.85852,0.9928 -8.10352,1.0708 0.172,0.318 0.32063,0.64708 0.51563,0.95508 1.662,2.608 4.04126,4.69561 7.07226,6.20361 3.034,1.512 6.38262,2.27783 9.95362,2.27783 z m -30.71485,-9.49072 c 0.004,-0.0668 0.23506,-1.13163 11.46094,-0.86426 0.22698,0.006 0.82885,-0.009 1.20996,-0.007 0.002,0.005 0.004,0.01 0.006,0.0146 0.0594,-0.002 0.15682,-0.0134 0.21826,-0.0161 3.50469,0.004 11.61862,-0.35027 14.40235,-4.33154 3.622,-5.172 0.0776,-14.05517 0.0776,-14.05517 0,0 -1.42769,0.90421 -3.40869,2.99121 -0.699,0.734 -2.02782,1.9467 -1.86182,2.8667 1.127,6.206 -6.9082,5.79638 -6.9082,5.79638 l -8.53857,0.1128 v -18.87305 c 0,0 4.86058,2.76384 7.72558,3.61084 0,0 4.80005,2.58692 9.39405,-8.55908 3.078,-7.466 6.52067,-13.47777 6.26367,-18.50977 -0.313,-6.054 -4.49364,-7.644141 -10.95264,-8.244141 -1.527,1.746 -1.96194,2.957676 -2.66894,5.617676 l 2.53564,0.05566 c 0,0 6.5144,0.701941 2.7334,8.939941 -2.922,6.369004 -4.80322,10.349124 -4.80322,10.349124 0,0 -1.45827,4.57975 -6.05127,1.59375 -2.487,-1.617 -4.17627,-2.81396 -4.17627,-2.81396 V 89.003627 l 0.77783,-0.02783 c 0.51,-2.672 0.94598,-3.491344 1.83398,-5.777344 -1.138,-0.107 -2.95898,-0.03369 -2.95898,-0.03369 h -6.30029 c -1.963,2.588 -3.717778,5.762695 -3.717778,5.762695 4.174998,0.995 3.476078,4.886719 3.476078,4.886719 0.209,36.886993 0.024,34.624653 0,37.618653 -0.023,2.809 -3.130375,3.01025 -3.130375,3.01025 0,0 2.527115,4.6446 3.361815,7.03418 z m 35.16504,-0.0747 c 0,0 1.19932,-0.57478 3.54932,-0.55078 2.115,-1.574 3.65439,-4.59255 4.40039,-6.51855 -0.75,-0.013 -1.4907,-0.15539 -1.8457,-0.17139 v -19.81787 c 2.334,0.895 14.25275,5.1714 16.42675,8.7334 1.899,3.106 0.39839,8.68024 -1.97461,10.09424 -0.723,0.43 -2.08836,1.01074 -4.15136,1.01074 -0.757,2.605 -1.64789,4.94221 -2.33789,6.47021 4.344,-0.393 4.83107,-0.64687 5.99707,-0.90087 3.607,-0.788 6.83318,-2.6147 7.78418,-4.9087 0.449,-1.077 1.61745,-2.70288 1.93945,-8.77588 0.457,-8.629 -8.49463,-12.09375 -8.49463,-12.09375 1e-4,-0.001 0.63112,-8.42105 2.77295,-14.30859 4.155,-11.421 5.55176,-13.07373 5.55176,-13.07373 -1.383,-2.26 -2.55762,-3.298829 -2.55762,-3.298829 0,0 -2.70492,0.0029 -4.77392,0.0029 -0.596,0 -1.58467,4.648918 -2.57667,8.690918 -0.988,4.041 -3.36328,19.835451 -3.36328,19.835451 l -9.69873,-4.75342 c 0,0 -0.79148,-16.277636 -0.79248,-18.452636 0,-2.178 1.41797,-2.786133 1.41797,-2.786133 0,0 -0.81557,-1.49991 -2.43457,-2.48291 -0.332,-0.202 -5.26611,-0.05127 -5.26611,-0.05127 -1.736,2.762 -3.2168,5.544434 -3.2168,5.544434 3.958,0.99 3.36328,5.314453 3.36328,5.314453 0.199,36.683002 0.103,34.436112 0,37.412112 -0.1,2.981 -2.76562,3.36035 -2.76562,3.36035 0,0 2.25387,4.10107 3.04687,6.47607 z m -23.94433,-8.41406 c 2.222,0.05 5.65913,-0.0229 7.66113,-0.81885 l 0.004,0.001 c 0.183,-1.046 0.50038,-2.07192 0.98438,-3.06592 0.774,-1.591 2.19228,-3.33122 4.21728,-5.17822 1.066,-0.94 4.36321,-3.27664 10.01221,-7.09864 v -8.80224 c -1.758,1.372 -3.716,2.80757 -5.896,4.30957 -6.814,4.698 -11.10139,8.13143 -12.75439,10.21143 -2.644,3.221 -4.053,6.7304 -4.229,10.4414 z m 34.32129,-24.86865 c 1.588,-1.524 2.87382,-2.97233 3.84082,-4.34033 2.586,-3.66 3.89794,-7.37925 3.89794,-11.05225 0,-5.3 -2.24025,-9.971184 -6.65625,-13.888184 -4.43,-3.929 -9.89658,-5.919434 -16.24658,-5.919434 -4.892,0 -10.07173,0.768169 -13.92773,3.347169 -4.142,2.772 -8.04079,7.194598 -8.63379,15.912598 -0.051,0.753 -0.0795,2.209574 -0.0835,2.538574 l 4.27002,0.780762 3.16846,0.629882 c -0.33,-14.591 6.58392,-16.964816 14.41992,-16.861816 2.834,0.036 5.5372,0.6128 8.0332,1.8208 2.506,1.215 4.44377,2.871411 5.75977,4.920411 1.316,2.052 1.9834,4.26143 1.9834,6.56543 0,2.626 -0.97479,5.226051 -2.90479,7.727048 -0.059,0.076 -0.13629,0.15791 -0.19629,0.23291 l 0.36768,6.10694 z"
       transform="matrix(1.3333333,0,0,-1.3333333,0,313.984)" />
    <path
       id="path15"
       d="m 0,0 c -0.215,-0.096 -0.386,-0.229 -0.514,-0.398 -0.127,-0.17 -0.206,-0.373 -0.24,-0.605 -0.033,-0.233 -0.017,-0.504 0.048,-0.814 0.064,-0.309 0.198,-0.689 0.4,-1.14 L 0.353,-4.42 2.986,-3.236 2.184,-1.453 C 2.029,-1.109 1.872,-0.833 1.712,-0.622 1.552,-0.413 1.379,-0.246 1.194,-0.121 1.01,0.002 0.815,0.076 0.612,0.102 0.409,0.127 0.205,0.093 0,0 m -3.683,-2.411 c -0.185,-0.083 -0.336,-0.194 -0.45,-0.337 -0.114,-0.142 -0.186,-0.309 -0.216,-0.504 -0.03,-0.194 -0.021,-0.416 0.029,-0.668 0.05,-0.253 0.161,-0.569 0.333,-0.951 l 0.561,-1.248 2.405,1.082 -0.621,1.379 c -0.16,0.355 -0.32,0.626 -0.48,0.81 -0.16,0.184 -0.328,0.322 -0.503,0.41 -0.175,0.091 -0.354,0.136 -0.535,0.139 -0.182,10e-4 -0.355,-0.036 -0.523,-0.112 m 2.466,4.945 c 0.33,0.148 0.654,0.222 0.975,0.224 C 0.079,2.759 0.389,2.7 0.688,2.583 0.988,2.465 1.277,2.294 1.556,2.07 1.834,1.847 2.1,1.58 2.353,1.272 2.605,0.966 2.843,0.623 3.068,0.246 3.292,-0.13 3.513,-0.563 3.732,-1.05 L 5.183,-4.278 C 5.276,-4.484 5.308,-4.679 5.279,-4.861 5.25,-5.044 5.128,-5.183 4.918,-5.277 l -8.071,-3.629 c -0.211,-0.095 -0.394,-0.092 -0.551,0.007 -0.155,0.098 -0.28,0.251 -0.373,0.458 l -1.371,3.048 c -0.334,0.746 -0.57,1.397 -0.706,1.956 -0.137,0.559 -0.188,1.059 -0.154,1.499 0.035,0.44 0.157,0.821 0.369,1.141 0.211,0.32 0.518,0.571 0.918,0.752 0.224,0.101 0.453,0.157 0.684,0.171 0.232,0.015 0.461,-0.014 0.689,-0.085 0.226,-0.071 0.448,-0.184 0.667,-0.338 0.218,-0.153 0.426,-0.347 0.623,-0.582 -0.107,0.365 -0.166,0.721 -0.178,1.066 -0.011,0.343 0.029,0.666 0.12,0.967 0.092,0.3 0.236,0.57 0.432,0.809 0.197,0.239 0.453,0.429 0.767,0.571"
       style="display:inline;fill:#2c5dab;fill-opacity:1;fill-rule:nonzero;stroke:none"
       transform="matrix(1.3333333,0,0,-1.3333333,91.852267,200.90067)" />
    <path
       id="path16"
       d="M 0,0 C 0.05,0.015 0.102,0.006 0.154,-0.025 0.206,-0.058 0.259,-0.119 0.312,-0.211 0.365,-0.304 0.422,-0.43 0.483,-0.59 0.544,-0.751 0.611,-0.96 0.684,-1.218 0.754,-1.47 0.805,-1.681 0.837,-1.854 0.869,-2.026 0.886,-2.166 0.889,-2.271 0.892,-2.378 0.879,-2.458 0.85,-2.512 0.822,-2.566 0.783,-2.601 0.732,-2.615 l -9.233,-2.586 c -0.05,-0.014 -0.102,-0.005 -0.153,0.026 -0.053,0.031 -0.106,0.096 -0.16,0.192 -0.054,0.094 -0.111,0.222 -0.172,0.383 -0.062,0.162 -0.128,0.368 -0.198,0.619 -0.072,0.256 -0.124,0.47 -0.155,0.64 -0.031,0.169 -0.048,0.307 -0.051,0.413 -0.002,0.106 0.011,0.185 0.039,0.24 0.029,0.054 0.067,0.088 0.118,0.103 z"
       style="display:inline;fill:#2c5dab;fill-opacity:1;fill-rule:nonzero;stroke:none"
       transform="matrix(1.3333333,0,0,-1.3333333,91.418667,188.11547)" />
    <path
       id="path17"
       d="M 0,0 C 0.156,0.021 0.288,0.031 0.396,0.029 0.505,0.027 0.593,0.013 0.66,-0.017 0.728,-0.045 0.781,-0.081 0.818,-0.124 0.856,-0.168 0.879,-0.22 0.888,-0.281 L 1.493,-4.59 4.196,-4.211 3.629,-0.166 C 3.62,-0.104 3.626,-0.049 3.645,0.002 3.664,0.053 3.702,0.103 3.759,0.147 3.815,0.194 3.895,0.232 3.996,0.265 4.098,0.296 4.226,0.323 4.381,0.345 4.537,0.366 4.667,0.376 4.773,0.374 4.88,0.37 4.969,0.355 5.041,0.328 5.113,0.3 5.168,0.264 5.203,0.221 5.238,0.177 5.26,0.125 5.269,0.063 L 5.836,-3.98 9.581,-3.455 C 9.638,-3.447 9.69,-3.461 9.738,-3.496 9.784,-3.53 9.83,-3.599 9.873,-3.7 c 0.043,-0.101 0.084,-0.236 0.124,-0.404 0.04,-0.167 0.077,-0.383 0.114,-0.647 0.037,-0.259 0.059,-0.477 0.068,-0.651 0.009,-0.176 0.006,-0.317 -0.008,-0.422 C 10.157,-5.93 10.132,-6.008 10.097,-6.059 10.061,-6.107 10.015,-6.137 9.958,-6.145 L 0.844,-7.424 C 0.616,-7.456 0.441,-7.401 0.318,-7.264 0.196,-7.125 0.119,-6.943 0.087,-6.72 l -0.87,6.205 c -0.009,0.061 -0.002,0.117 0.02,0.169 0.021,0.051 0.062,0.1 0.122,0.147 0.059,0.046 0.142,0.086 0.248,0.118 C -0.286,-0.049 -0.155,-0.021 0,0"
       style="display:inline;fill:#2c5dab;fill-opacity:1;fill-rule:nonzero;stroke:none"
       transform="matrix(1.3333333,0,0,-1.3333333,76.7988,174.4892)" />
    <path
       id="path18"
       d="M 0,0 C -0.334,0.014 -0.62,-0.075 -0.858,-0.266 -1.096,-0.456 -1.27,-0.774 -1.381,-1.224 -1.413,-1.36 -1.439,-1.515 -1.462,-1.688 -1.484,-1.863 -1.501,-2.104 -1.513,-2.413 l -0.046,-1.213 2.877,-0.109 0.053,1.378 c 0.014,0.383 -0.008,0.719 -0.067,1.01 -0.06,0.29 -0.15,0.534 -0.271,0.732 C 0.912,-0.419 0.765,-0.27 0.591,-0.167 0.417,-0.063 0.22,-0.008 0,0 M 7.018,3.223 C 7.075,3.221 7.123,3.204 7.161,3.176 7.199,3.146 7.229,3.081 7.251,2.977 7.274,2.873 7.286,2.722 7.289,2.522 7.292,2.322 7.287,2.053 7.274,1.709 7.263,1.421 7.249,1.192 7.232,1.021 7.215,0.851 7.19,0.715 7.158,0.618 7.125,0.52 7.086,0.45 7.04,0.411 6.994,0.372 6.939,0.339 6.875,0.314 L 4.563,-0.791 C 4.302,-0.926 4.069,-1.058 3.866,-1.188 3.662,-1.316 3.49,-1.462 3.351,-1.626 3.21,-1.788 3.103,-1.979 3.026,-2.195 2.949,-2.411 2.906,-2.664 2.896,-2.952 L 2.863,-3.795 6.729,-3.942 C 6.78,-3.944 6.827,-3.968 6.867,-4.015 6.907,-4.062 6.938,-4.136 6.96,-4.239 6.983,-4.343 6.999,-4.48 7.007,-4.652 7.017,-4.825 7.016,-5.044 7.005,-5.312 6.996,-5.572 6.979,-5.789 6.958,-5.964 6.935,-6.138 6.909,-6.275 6.879,-6.377 6.849,-6.479 6.812,-6.55 6.769,-6.589 6.725,-6.629 6.678,-6.648 6.625,-6.646 l -9.212,0.352 c -0.231,0.009 -0.393,0.092 -0.49,0.251 -0.096,0.157 -0.139,0.35 -0.131,0.575 l 0.131,3.445 c 0.014,0.348 0.03,0.636 0.049,0.863 0.019,0.225 0.041,0.43 0.063,0.614 0.078,0.533 0.196,1.011 0.353,1.433 0.157,0.424 0.355,0.78 0.594,1.069 0.239,0.289 0.517,0.507 0.834,0.652 0.317,0.147 0.677,0.211 1.08,0.197 C 0.235,2.792 0.543,2.724 0.818,2.6 1.093,2.476 1.337,2.3 1.548,2.073 1.759,1.845 1.939,1.566 2.089,1.239 2.239,0.91 2.355,0.539 2.439,0.123 2.52,0.319 2.616,0.503 2.727,0.674 2.839,0.845 2.972,1.004 3.126,1.152 3.281,1.301 3.457,1.44 3.653,1.57 3.849,1.699 4.07,1.825 4.314,1.946 L 6.357,2.99 C 6.56,3.085 6.708,3.147 6.8,3.18 6.893,3.21 6.965,3.225 7.018,3.223"
       style="display:inline;fill:#2c5dab;fill-opacity:1;fill-rule:nonzero;stroke:none"
       transform="matrix(1.3333333,0,0,-1.3333333,79.6068,159.4436)" />
    <path
       id="path19"
       d="m 0,0 c 0.148,-0.032 0.271,-0.069 0.366,-0.108 0.096,-0.039 0.171,-0.082 0.224,-0.129 0.055,-0.047 0.09,-0.1 0.106,-0.156 0.018,-0.056 0.019,-0.114 0.006,-0.175 l -1.454,-6.527 c -0.05,-0.22 -0.141,-0.394 -0.274,-0.523 -0.133,-0.129 -0.312,-0.168 -0.537,-0.117 l -8.639,1.924 c -0.224,0.05 -0.37,0.162 -0.436,0.334 -0.066,0.173 -0.074,0.371 -0.025,0.591 l 1.446,6.487 c 0.013,0.06 0.038,0.111 0.074,0.152 0.036,0.041 0.089,0.072 0.161,0.091 0.071,0.019 0.158,0.025 0.262,0.02 0.103,-0.007 0.231,-0.025 0.385,-0.059 0.142,-0.032 0.262,-0.068 0.357,-0.106 0.097,-0.039 0.171,-0.083 0.225,-0.13 0.054,-0.047 0.089,-0.097 0.107,-0.15 0.018,-0.053 0.02,-0.109 0.006,-0.169 l -1.033,-4.64 2.419,-0.539 0.875,3.926 c 0.014,0.061 0.041,0.112 0.08,0.156 0.039,0.044 0.091,0.076 0.158,0.097 0.066,0.02 0.151,0.027 0.254,0.022 0.103,-0.005 0.226,-0.024 0.369,-0.056 0.148,-0.032 0.269,-0.07 0.363,-0.107 0.092,-0.039 0.165,-0.081 0.216,-0.127 0.051,-0.047 0.084,-0.098 0.099,-0.154 0.014,-0.056 0.014,-0.113 10e-4,-0.175 l -0.875,-3.924 2.795,-0.624 1.043,4.679 c 0.014,0.06 0.04,0.112 0.079,0.155 0.04,0.045 0.093,0.078 0.162,0.097 0.069,0.02 0.156,0.027 0.258,0.022 C -0.273,0.052 -0.148,0.032 0,0"
       style="display:inline;fill:#2c5dab;fill-opacity:1;fill-rule:nonzero;stroke:none"
       transform="matrix(1.3333333,0,0,-1.3333333,91.291733,140.566)" />
    <path
       id="path20"
       d="M 0,0 C 0.049,-0.019 0.085,-0.056 0.109,-0.112 0.133,-0.169 0.139,-0.249 0.127,-0.354 0.116,-0.461 0.088,-0.597 0.043,-0.763 -0.002,-0.929 -0.071,-1.137 -0.165,-1.388 -0.255,-1.633 -0.338,-1.834 -0.415,-1.992 -0.49,-2.15 -0.558,-2.273 -0.618,-2.36 -0.679,-2.448 -0.736,-2.505 -0.791,-2.532 -0.846,-2.56 -0.898,-2.563 -0.947,-2.547 l -8.987,3.344 c -0.048,0.016 -0.085,0.054 -0.109,0.111 -0.023,0.056 -0.029,0.139 -0.016,0.247 0.012,0.109 0.041,0.247 0.086,0.412 0.045,0.167 0.113,0.372 0.204,0.617 0.093,0.251 0.177,0.454 0.251,0.609 0.075,0.155 0.143,0.276 0.203,0.363 0.06,0.088 0.118,0.145 0.172,0.171 0.056,0.028 0.107,0.032 0.156,0.015 z"
       style="display:inline;fill:#2c5dab;fill-opacity:1;fill-rule:nonzero;stroke:none"
       transform="matrix(1.3333333,0,0,-1.3333333,94.866533,132.73133)" />
    <path
       id="path21"
       d="m 0,0 c -0.419,0.238 -0.845,0.395 -1.276,0.471 -0.432,0.075 -0.86,0.049 -1.283,-0.083 -0.423,-0.129 -0.835,-0.376 -1.237,-0.74 -0.402,-0.364 -0.803,-0.897 -1.203,-1.6 l -0.685,-1.208 2.162,-1.229 1.001,1.763 c 0.03,0.054 0.07,0.096 0.118,0.128 0.049,0.031 0.108,0.047 0.18,0.046 0.071,-0.002 0.156,-0.02 0.253,-0.055 0.097,-0.036 0.209,-0.09 0.337,-0.162 0.132,-0.074 0.237,-0.144 0.318,-0.211 0.08,-0.064 0.139,-0.127 0.177,-0.188 0.037,-0.062 0.055,-0.12 0.051,-0.177 -0.002,-0.059 -0.017,-0.114 -0.049,-0.168 l -1.001,-1.763 2.456,-1.394 0.696,1.225 c 0.366,0.645 0.609,1.222 0.731,1.733 0.122,0.509 0.138,0.986 0.049,1.427 C 1.706,-1.744 1.511,-1.341 1.212,-0.979 0.913,-0.614 0.509,-0.288 0,0 M 1.325,2.477 C 2.135,2.018 2.749,1.485 3.167,0.881 3.584,0.277 3.827,-0.389 3.896,-1.118 3.962,-1.847 3.87,-2.63 3.619,-3.47 3.368,-4.309 2.95,-5.24 2.368,-6.267 L 0.798,-9.03 C 0.687,-9.228 0.549,-9.366 0.386,-9.448 0.223,-9.528 0.041,-9.512 -0.159,-9.397 l -3.309,1.878 -0.539,-0.948 c -0.03,-0.054 -0.069,-0.097 -0.114,-0.131 -0.046,-0.032 -0.103,-0.049 -0.173,-0.048 -0.069,-10e-4 -0.153,0.017 -0.253,0.053 -0.099,0.037 -0.217,0.096 -0.353,0.173 -0.132,0.074 -0.239,0.145 -0.319,0.21 -0.08,0.064 -0.138,0.127 -0.173,0.187 -0.036,0.059 -0.052,0.119 -0.049,0.176 0.003,0.058 0.019,0.113 0.049,0.166 l 0.538,0.949 -3.001,1.706 c -0.2,0.113 -0.307,0.259 -0.322,0.442 -0.014,0.182 0.035,0.37 0.147,0.567 l 1.692,2.979 c 0.583,1.025 1.171,1.848 1.765,2.464 0.594,0.617 1.211,1.069 1.853,1.355 0.64,0.287 1.301,0.407 1.979,0.362 0.678,-0.046 1.366,-0.269 2.066,-0.666"
       style="display:inline;fill:#2c5dab;fill-opacity:1;fill-rule:nonzero;stroke:none"
       transform="matrix(1.3333333,0,0,-1.3333333,96.7148,114.5868)" />
    <path
       id="path22"
       d="m 0,0 -0.008,-0.008 1.992,-4.265 2.497,2.83 z m 9.626,-0.342 c 0.195,-0.062 0.342,-0.124 0.437,-0.18 0.096,-0.057 0.14,-0.132 0.131,-0.226 C 10.187,-0.841 10.122,-0.963 10.005,-1.115 9.888,-1.269 9.719,-1.472 9.497,-1.724 9.265,-1.985 9.081,-2.188 8.946,-2.329 8.812,-2.47 8.701,-2.571 8.614,-2.633 8.53,-2.694 8.458,-2.727 8.398,-2.729 8.341,-2.732 8.276,-2.723 8.208,-2.698 L 6.085,-2.021 2.777,-5.771 3.71,-7.716 C 3.746,-7.784 3.769,-7.853 3.776,-7.919 3.784,-7.986 3.766,-8.065 3.722,-8.158 3.677,-8.253 3.599,-8.371 3.487,-8.514 3.374,-8.657 3.221,-8.84 3.025,-9.061 2.816,-9.297 2.648,-9.478 2.518,-9.601 c -0.13,-0.123 -0.24,-0.191 -0.33,-0.203 -0.09,-0.011 -0.17,0.027 -0.24,0.116 -0.067,0.087 -0.143,0.222 -0.226,0.406 l -4.042,9.037 c -0.039,0.089 -0.061,0.173 -0.067,0.25 -0.004,0.077 0.023,0.17 0.08,0.279 0.058,0.109 0.155,0.246 0.289,0.411 0.135,0.164 0.318,0.378 0.549,0.641 0.268,0.304 0.485,0.542 0.649,0.717 0.164,0.176 0.302,0.303 0.412,0.385 0.109,0.081 0.205,0.124 0.287,0.13 0.082,0.005 0.174,-0.009 0.275,-0.045 z"
       style="display:inline;fill:#2c5dab;fill-opacity:1;fill-rule:nonzero;stroke:none"
       transform="matrix(1.3333333,0,0,-1.3333333,102.8412,99.724933)" />
    <path
       id="path23"
       d="M 0,0 C 0.332,-0.419 0.521,-0.865 0.567,-1.344 0.613,-1.821 0.546,-2.304 0.364,-2.792 0.183,-3.279 -0.1,-3.762 -0.482,-4.24 c -0.382,-0.479 -0.84,-0.928 -1.372,-1.35 -0.36,-0.286 -0.711,-0.529 -1.057,-0.728 -0.344,-0.201 -0.66,-0.364 -0.946,-0.488 -0.288,-0.124 -0.538,-0.214 -0.751,-0.269 -0.214,-0.057 -0.377,-0.086 -0.49,-0.089 -0.112,-0.001 -0.222,0.036 -0.332,0.114 -0.108,0.076 -0.238,0.209 -0.387,0.398 -0.101,0.126 -0.18,0.237 -0.238,0.331 -0.058,0.095 -0.095,0.178 -0.114,0.251 -0.019,0.072 -0.017,0.136 0.007,0.19 0.022,0.055 0.06,0.104 0.114,0.147 0.075,0.059 0.208,0.109 0.4,0.15 0.189,0.041 0.424,0.106 0.705,0.195 0.279,0.089 0.594,0.218 0.947,0.387 0.351,0.169 0.724,0.409 1.115,0.721 0.259,0.204 0.471,0.411 0.638,0.62 0.167,0.209 0.287,0.413 0.361,0.612 0.073,0.2 0.098,0.392 0.072,0.579 -0.025,0.186 -0.1,0.358 -0.224,0.514 -0.143,0.18 -0.329,0.283 -0.562,0.309 -0.231,0.028 -0.49,0.008 -0.776,-0.055 -0.286,-0.064 -0.597,-0.155 -0.93,-0.277 -0.333,-0.122 -0.677,-0.244 -1.036,-0.366 -0.356,-0.124 -0.717,-0.227 -1.08,-0.311 -0.361,-0.085 -0.715,-0.121 -1.061,-0.112 -0.344,0.01 -0.675,0.082 -0.994,0.219 -0.317,0.135 -0.607,0.368 -0.871,0.699 -0.302,0.382 -0.475,0.79 -0.519,1.227 -0.045,0.435 0.015,0.873 0.177,1.313 0.165,0.44 0.422,0.876 0.774,1.311 0.351,0.432 0.767,0.839 1.246,1.219 0.246,0.195 0.504,0.377 0.773,0.545 0.272,0.167 0.534,0.311 0.787,0.433 0.254,0.121 0.489,0.218 0.704,0.288 0.215,0.071 0.366,0.108 0.452,0.109 C -4.863,4.598 -4.8,4.592 -4.758,4.578 -4.717,4.563 -4.671,4.539 -4.619,4.502 -4.568,4.466 -4.512,4.415 -4.45,4.347 -4.388,4.279 -4.314,4.192 -4.229,4.086 -4.135,3.967 -4.06,3.863 -4.003,3.775 -3.945,3.687 -3.905,3.608 -3.882,3.541 -3.858,3.472 -3.854,3.411 -3.869,3.359 -3.886,3.308 -3.923,3.258 -3.981,3.211 -4.04,3.164 -4.156,3.118 -4.332,3.073 -4.506,3.028 -4.714,2.964 -4.956,2.884 -5.197,2.801 -5.464,2.69 -5.755,2.55 -6.046,2.408 -6.34,2.221 -6.635,1.986 -6.865,1.803 -7.05,1.622 -7.188,1.441 -7.325,1.263 -7.422,1.089 -7.478,0.922 -7.532,0.754 -7.546,0.594 -7.518,0.443 c 0.028,-0.152 0.09,-0.287 0.184,-0.405 0.139,-0.176 0.324,-0.278 0.553,-0.307 0.228,-0.029 0.488,-0.009 0.781,0.058 0.291,0.068 0.606,0.165 0.945,0.29 0.339,0.126 0.687,0.25 1.044,0.373 0.357,0.123 0.72,0.23 1.087,0.318 0.368,0.088 0.726,0.128 1.073,0.121 C -1.502,0.882 -1.17,0.812 -0.854,0.679 -0.539,0.546 -0.254,0.319 0,0"
       style="display:inline;fill:#2c5dab;fill-opacity:1;fill-rule:nonzero;stroke:none"
       transform="matrix(1.3333333,0,0,-1.3333333,125.30333,88.659733)" />
    <path
       id="path24"
       d="M 0,0 C 0.073,-0.134 0.127,-0.251 0.163,-0.354 0.199,-0.456 0.218,-0.544 0.219,-0.618 0.22,-0.691 0.205,-0.754 0.176,-0.807 0.145,-0.859 0.103,-0.899 0.048,-0.929 L -2.881,-2.52 1.023,-9.712 c 0.025,-0.046 0.028,-0.098 0.009,-0.156 -0.02,-0.058 -0.068,-0.123 -0.146,-0.195 -0.077,-0.073 -0.19,-0.157 -0.337,-0.253 -0.146,-0.098 -0.333,-0.209 -0.563,-0.332 -0.228,-0.125 -0.423,-0.223 -0.585,-0.292 -0.161,-0.07 -0.293,-0.118 -0.396,-0.144 -0.103,-0.025 -0.184,-0.03 -0.242,-0.016 -0.06,0.016 -0.102,0.047 -0.126,0.093 l -3.906,7.193 -2.928,-1.591 c -0.061,-0.033 -0.119,-0.046 -0.177,-0.042 -0.057,0.005 -0.115,0.027 -0.177,0.069 -0.062,0.041 -0.126,0.104 -0.191,0.19 -0.067,0.086 -0.136,0.197 -0.208,0.329 -0.075,0.138 -0.132,0.26 -0.169,0.364 -0.037,0.105 -0.057,0.194 -0.057,0.268 -0.002,0.074 0.012,0.135 0.041,0.183 0.029,0.049 0.072,0.089 0.133,0.121 l 8.245,4.477 c 0.055,0.029 0.111,0.043 0.171,0.043 0.059,-0.001 0.118,-0.022 0.18,-0.063 C -0.345,0.492 -0.28,0.428 -0.213,0.339 -0.146,0.251 -0.074,0.138 0,0"
       style="display:inline;fill:#2c5dab;fill-opacity:1;fill-rule:nonzero;stroke:none"
       transform="matrix(1.3333333,0,0,-1.3333333,135.7096,73.1936)" />
    <path
       id="path25"
       d="m 0,0 c 0.109,-0.349 0.095,-0.622 -0.045,-0.819 -0.14,-0.198 -0.461,-0.375 -0.965,-0.534 -0.504,-0.158 -0.864,-0.197 -1.08,-0.116 -0.215,0.08 -0.376,0.29 -0.482,0.629 -0.112,0.355 -0.099,0.629 0.039,0.823 0.136,0.194 0.457,0.37 0.961,0.528 0.504,0.158 0.865,0.198 1.083,0.122 C -0.271,0.556 -0.107,0.345 0,0 m 1.923,-6.683 c -0.16,0.509 -0.358,0.956 -0.593,1.34 -0.235,0.384 -0.526,0.685 -0.87,0.904 -0.346,0.217 -0.753,0.34 -1.223,0.373 -0.469,0.03 -1.018,-0.053 -1.646,-0.249 -0.635,-0.2 -1.137,-0.457 -1.505,-0.773 -0.368,-0.315 -0.636,-0.666 -0.802,-1.053 -0.167,-0.385 -0.239,-0.799 -0.221,-1.24 0.021,-0.441 0.101,-0.889 0.244,-1.343 0.166,-0.529 0.368,-0.989 0.604,-1.377 0.236,-0.389 0.526,-0.694 0.869,-0.916 0.343,-0.221 0.748,-0.344 1.216,-0.371 0.468,-0.026 1.021,0.061 1.654,0.26 0.635,0.199 1.137,0.455 1.506,0.768 0.369,0.312 0.636,0.666 0.802,1.057 0.164,0.392 0.235,0.81 0.214,1.256 -0.021,0.445 -0.104,0.9 -0.249,1.364 m -6.213,5.338 c 0.109,-0.349 0.097,-0.623 -0.04,-0.818 -0.136,-0.196 -0.456,-0.373 -0.96,-0.531 -0.504,-0.159 -0.865,-0.197 -1.084,-0.118 -0.219,0.079 -0.382,0.289 -0.488,0.628 -0.112,0.354 -0.097,0.629 0.044,0.824 0.139,0.194 0.459,0.37 0.956,0.526 0.51,0.159 0.873,0.2 1.088,0.123 C -4.56,-0.789 -4.397,-1 -4.29,-1.345 M 4.6,-5.729 C 4.851,-6.532 4.945,-7.292 4.883,-8.008 4.819,-8.724 4.599,-9.384 4.22,-9.987 3.842,-10.592 3.308,-11.129 2.618,-11.6 c -0.689,-0.471 -1.535,-0.863 -2.536,-1.177 -0.989,-0.31 -1.882,-0.482 -2.68,-0.516 -0.798,-0.033 -1.506,0.075 -2.124,0.326 -0.617,0.25 -1.146,0.649 -1.587,1.196 -0.441,0.547 -0.795,1.247 -1.062,2.1 -0.246,0.784 -0.337,1.529 -0.272,2.239 0.066,0.708 0.289,1.364 0.667,1.965 0.379,0.601 0.914,1.138 1.603,1.612 0.688,0.473 1.537,0.869 2.545,1.184 0.962,0.302 1.842,0.471 2.639,0.507 0.797,0.036 1.505,-0.07 2.127,-0.319 0.621,-0.25 1.154,-0.644 1.599,-1.181 0.445,-0.538 0.8,-1.226 1.063,-2.065"
       style="display:inline;fill:#2c5dab;fill-opacity:1;fill-rule:nonzero;stroke:none"
       transform="matrix(1.3333333,0,0,-1.3333333,151.21747,63.908533)" />
    <path
       id="path26"
       d="m 0,0 c -0.039,0.479 -0.148,0.92 -0.328,1.319 -0.181,0.402 -0.443,0.739 -0.79,1.016 -0.346,0.276 -0.781,0.478 -1.308,0.606 -0.526,0.128 -1.192,0.161 -2,0.094 l -1.384,-0.111 0.201,-2.479 2.02,0.162 c 0.062,0.005 0.119,-0.003 0.172,-0.025 0.054,-0.022 0.1,-0.062 0.14,-0.123 0.039,-0.06 0.071,-0.139 0.095,-0.239 0.027,-0.101 0.044,-0.224 0.056,-0.37 0.013,-0.152 0.015,-0.279 0.005,-0.381 -0.009,-0.104 -0.027,-0.188 -0.057,-0.253 -0.029,-0.065 -0.068,-0.113 -0.117,-0.144 -0.049,-0.029 -0.104,-0.047 -0.166,-0.052 l -2.019,-0.164 0.226,-2.814 1.405,0.113 c 0.739,0.06 1.354,0.183 1.843,0.369 0.491,0.187 0.894,0.441 1.209,0.762 0.314,0.323 0.537,0.71 0.669,1.161 C 0.005,-1.102 0.047,-0.584 0,0 M 2.794,0.297 C 2.868,-0.632 2.773,-1.438 2.51,-2.123 2.244,-2.808 1.83,-3.384 1.266,-3.85 0.701,-4.315 0.001,-4.679 -0.834,-4.944 -1.669,-5.207 -2.675,-5.388 -3.851,-5.482 L -7.02,-5.738 c -0.225,-0.019 -0.418,0.017 -0.576,0.107 -0.158,0.089 -0.246,0.248 -0.265,0.478 l -0.306,3.793 -1.088,-0.087 c -0.061,-0.006 -0.119,0.002 -0.172,0.021 -0.052,0.019 -0.098,0.058 -0.137,0.114 -0.04,0.057 -0.072,0.138 -0.097,0.24 -0.027,0.103 -0.045,0.233 -0.058,0.389 -0.011,0.151 -0.013,0.28 -0.005,0.382 0.009,0.103 0.028,0.187 0.058,0.248 0.029,0.063 0.068,0.11 0.117,0.14 0.049,0.03 0.105,0.048 0.166,0.053 l 1.087,0.088 -0.278,3.441 c -0.019,0.229 0.044,0.4 0.185,0.515 0.143,0.113 0.327,0.179 0.553,0.197 l 3.414,0.276 c 1.176,0.095 2.186,0.072 3.03,-0.074 0.844,-0.144 1.565,-0.4 2.163,-0.77 C 1.368,3.444 1.838,2.967 2.182,2.381 2.524,1.794 2.729,1.1 2.794,0.297"
       style="display:inline;fill:#2c5dab;fill-opacity:1;fill-rule:nonzero;stroke:none"
       transform="matrix(1.3333333,0,0,-1.3333333,174.47,69.7028)" />
    <path
       id="path27"
       d="M 0,0 C 0.071,0.326 0.034,0.623 -0.111,0.89 -0.257,1.158 -0.54,1.386 -0.963,1.574 -1.091,1.629 -1.238,1.682 -1.406,1.735 -1.574,1.788 -1.809,1.847 -2.11,1.913 l -1.186,0.259 -0.613,-2.814 1.346,-0.294 c 0.375,-0.082 0.711,-0.119 1.007,-0.111 0.297,0.008 0.553,0.054 0.768,0.138 0.215,0.084 0.388,0.203 0.519,0.356 C -0.137,-0.399 -0.048,-0.216 0,0 M 1.938,-7.476 C 1.926,-7.531 1.902,-7.576 1.867,-7.609 1.832,-7.641 1.762,-7.659 1.655,-7.662 1.549,-7.666 1.398,-7.651 1.201,-7.619 c -0.196,0.032 -0.463,0.084 -0.797,0.157 -0.281,0.061 -0.505,0.115 -0.671,0.162 -0.165,0.047 -0.293,0.095 -0.383,0.145 -0.091,0.05 -0.152,0.099 -0.183,0.151 -0.031,0.054 -0.054,0.113 -0.066,0.181 l -0.683,2.469 c -0.086,0.281 -0.175,0.534 -0.267,0.756 -0.091,0.224 -0.205,0.419 -0.341,0.585 -0.135,0.166 -0.303,0.306 -0.503,0.419 -0.2,0.114 -0.441,0.2 -0.722,0.262 l -0.824,0.18 -0.825,-3.779 c -0.011,-0.051 -0.043,-0.092 -0.095,-0.124 -0.053,-0.031 -0.132,-0.049 -0.237,-0.053 -0.107,-0.003 -0.246,0.005 -0.417,0.027 -0.17,0.021 -0.386,0.06 -0.648,0.118 -0.255,0.056 -0.466,0.109 -0.633,0.161 -0.167,0.053 -0.299,0.103 -0.394,0.151 -0.095,0.047 -0.158,0.096 -0.189,0.145 -0.031,0.05 -0.041,0.1 -0.03,0.152 l 1.965,9.006 c 0.049,0.226 0.16,0.371 0.333,0.439 0.172,0.067 0.369,0.076 0.591,0.027 L -1.452,3.384 C -1.11,3.309 -0.83,3.242 -0.61,3.184 -0.392,3.125 -0.194,3.069 -0.017,3.015 0.494,2.844 0.943,2.644 1.332,2.415 1.721,2.185 2.036,1.928 2.279,1.642 2.523,1.355 2.688,1.044 2.775,0.706 2.863,0.369 2.865,0.002 2.779,-0.391 2.706,-0.723 2.585,-1.014 2.415,-1.263 2.245,-1.513 2.028,-1.721 1.768,-1.889 1.506,-2.057 1.2,-2.186 0.851,-2.275 0.502,-2.365 0.115,-2.415 -0.308,-2.423 -0.13,-2.537 0.034,-2.665 0.183,-2.804 0.332,-2.943 0.466,-3.103 0.584,-3.281 0.703,-3.46 0.81,-3.656 0.903,-3.873 0.996,-4.088 1.081,-4.327 1.157,-4.59 L 1.825,-6.783 C 1.884,-7 1.92,-7.157 1.934,-7.254 1.948,-7.351 1.949,-7.424 1.938,-7.476"
       style="display:inline;fill:#2c5dab;fill-opacity:1;fill-rule:nonzero;stroke:none"
       transform="matrix(1.3333333,0,0,-1.3333333,201.63147,69.8824)" />
    <path
       id="path28"
       d="m 0,0 c -0.059,-0.14 -0.115,-0.253 -0.171,-0.341 -0.055,-0.087 -0.11,-0.153 -0.166,-0.199 -0.056,-0.044 -0.113,-0.069 -0.172,-0.076 -0.058,-0.007 -0.116,0.002 -0.173,0.025 l -6.169,2.582 c -0.209,0.088 -0.364,0.208 -0.467,0.363 -0.103,0.153 -0.11,0.335 -0.021,0.548 l 3.417,8.164 c 0.089,0.212 0.225,0.336 0.405,0.371 0.183,0.034 0.378,0.007 0.586,-0.08 L 3.2,8.792 C 3.257,8.768 3.303,8.735 3.337,8.691 3.371,8.649 3.391,8.591 3.397,8.517 3.404,8.444 3.396,8.356 3.372,8.256 3.348,8.155 3.307,8.032 3.246,7.888 3.189,7.753 3.133,7.642 3.078,7.554 3.022,7.467 2.968,7.4 2.911,7.356 2.855,7.311 2.8,7.284 2.744,7.276 2.689,7.27 2.633,7.276 2.576,7.301 L -1.809,9.136 -2.766,6.849 0.944,5.295 C 1.002,5.272 1.049,5.236 1.085,5.19 1.121,5.144 1.144,5.086 1.151,5.018 1.16,4.948 1.152,4.863 1.129,4.763 1.105,4.661 1.066,4.544 1.01,4.409 0.95,4.27 0.895,4.157 0.841,4.071 0.786,3.987 0.731,3.923 0.677,3.88 0.622,3.838 0.565,3.815 0.508,3.812 0.45,3.807 0.393,3.816 0.336,3.841 L -3.374,5.394 -4.48,2.752 -0.058,0.9 C -0.001,0.876 0.046,0.841 0.082,0.796 0.118,0.749 0.141,0.689 0.147,0.619 0.155,0.548 0.146,0.462 0.123,0.361 0.1,0.261 0.059,0.14 0,0"
       style="display:inline;fill:#2c5dab;fill-opacity:1;fill-rule:nonzero;stroke:none"
       transform="matrix(1.3333333,0,0,-1.3333333,218.14067,84.704)" />
    <path
       id="path29"
       d="m 0,0 -1.935,-3.001 c -0.028,-0.043 -0.072,-0.071 -0.132,-0.082 -0.06,-0.012 -0.14,0 -0.242,0.034 -0.1,0.033 -0.228,0.092 -0.383,0.173 -0.156,0.082 -0.343,0.192 -0.562,0.335 -0.225,0.145 -0.405,0.27 -0.541,0.376 -0.136,0.105 -0.24,0.198 -0.316,0.278 -0.076,0.08 -0.118,0.148 -0.13,0.205 -0.013,0.058 -0.004,0.108 0.023,0.153 l 1.936,3.001 -0.064,6.621 c -0.005,0.234 0.006,0.406 0.033,0.516 0.027,0.111 0.088,0.167 0.184,0.171 0.096,0.004 0.237,-0.047 0.422,-0.15 C -1.521,8.524 -1.27,8.371 -0.952,8.167 -0.687,7.995 -0.479,7.854 -0.325,7.744 -0.173,7.633 -0.058,7.535 0.019,7.451 0.095,7.368 0.143,7.293 0.16,7.225 0.178,7.157 0.188,7.079 0.188,6.992 L 0.081,4.093 C 0.071,3.813 0.054,3.522 0.027,3.222 0.001,2.922 -0.031,2.608 -0.068,2.284 l 0.016,-0.01 c 0.263,0.166 0.525,0.325 0.784,0.475 0.26,0.149 0.51,0.29 0.749,0.422 L 4.054,4.464 C 4.127,4.515 4.199,4.548 4.27,4.562 4.34,4.576 4.427,4.567 4.53,4.538 4.633,4.51 4.764,4.45 4.918,4.362 5.074,4.275 5.275,4.151 5.523,3.991 5.852,3.779 6.104,3.608 6.278,3.481 6.453,3.354 6.559,3.244 6.595,3.155 6.631,3.067 6.603,2.987 6.508,2.918 6.414,2.848 6.265,2.767 6.059,2.675 Z"
       style="display:inline;fill:#2c5dab;fill-opacity:1;fill-rule:nonzero;stroke:none"
       transform="matrix(1.3333333,0,0,-1.3333333,230.67453,87.467067)" />
    <path
       id="path30"
       d="m 0,0 c -0.039,-0.042 -0.088,-0.066 -0.146,-0.072 -0.058,-0.007 -0.135,0.016 -0.232,0.068 -0.097,0.053 -0.218,0.137 -0.363,0.253 -0.146,0.116 -0.32,0.271 -0.525,0.464 -0.323,0.308 -0.546,0.537 -0.67,0.69 -0.125,0.154 -0.199,0.279 -0.225,0.376 -0.027,0.097 -0.031,0.189 -0.016,0.275 L -1.781,8.317 -5.096,4.82 c -0.04,-0.041 -0.089,-0.063 -0.147,-0.064 -0.059,-0.002 -0.136,0.021 -0.23,0.071 -0.094,0.05 -0.21,0.128 -0.344,0.236 -0.136,0.106 -0.3,0.251 -0.495,0.435 -0.189,0.18 -0.341,0.334 -0.457,0.466 C -6.886,6.097 -6.971,6.208 -7.025,6.3 -7.08,6.391 -7.109,6.468 -7.113,6.528 -7.117,6.59 -7.1,6.642 -7.06,6.683 l 6.581,6.941 c 0.041,0.041 0.09,0.063 0.152,0.062 0.061,0 0.138,-0.027 0.23,-0.079 0.093,-0.051 0.208,-0.131 0.346,-0.24 0.139,-0.11 0.302,-0.254 0.49,-0.432 C 0.934,12.75 1.087,12.594 1.201,12.464 1.314,12.335 1.399,12.225 1.456,12.136 1.513,12.045 1.542,11.971 1.543,11.912 1.544,11.854 1.524,11.804 1.485,11.763 L -1.489,8.625 4.31,9.073 C 4.391,9.09 4.472,9.09 4.552,9.075 4.633,9.061 4.722,9.024 4.818,8.969 4.917,8.912 5.031,8.828 5.162,8.719 5.295,8.607 5.457,8.461 5.651,8.276 5.851,8.088 6.01,7.927 6.128,7.793 6.247,7.658 6.334,7.544 6.392,7.45 6.449,7.356 6.479,7.279 6.479,7.221 6.48,7.163 6.463,7.114 6.427,7.076 6.365,7.013 6.281,6.966 6.171,6.94 6.062,6.915 5.874,6.887 5.609,6.856 L 0.449,6.722 0.18,0.651 C 0.142,0.393 0.109,0.227 0.083,0.154 0.058,0.081 0.029,0.029 0,0"
       style="display:inline;fill:#2c5dab;fill-opacity:1;fill-rule:nonzero;stroke:none"
       transform="matrix(1.3333333,0,0,-1.3333333,244.82427,105.63507)" />
    <path
       id="path31"
       d="m 0,0 c -0.36,-0.287 -0.721,-0.5 -1.08,-0.641 -0.359,-0.14 -0.725,-0.185 -1.095,-0.134 -0.372,0.051 -0.747,0.206 -1.127,0.465 -0.38,0.26 -0.769,0.642 -1.17,1.146 -0.129,0.162 -0.246,0.329 -0.353,0.502 -0.108,0.174 -0.198,0.336 -0.275,0.492 -0.076,0.153 -0.135,0.292 -0.179,0.415 -0.044,0.122 -0.066,0.21 -0.065,0.264 0.001,0.054 0.007,0.102 0.019,0.146 0.012,0.044 0.035,0.093 0.069,0.147 0.034,0.053 0.084,0.11 0.15,0.172 0.065,0.06 0.151,0.132 0.257,0.216 0.14,0.112 0.261,0.201 0.364,0.27 0.101,0.068 0.188,0.115 0.258,0.14 0.071,0.025 0.131,0.03 0.182,0.011 0.049,-0.016 0.096,-0.051 0.139,-0.105 0.038,-0.049 0.069,-0.116 0.094,-0.201 0.025,-0.085 0.054,-0.18 0.089,-0.284 0.036,-0.103 0.083,-0.219 0.142,-0.347 0.058,-0.128 0.145,-0.266 0.261,-0.41 0.115,-0.145 0.231,-0.261 0.349,-0.347 0.118,-0.086 0.244,-0.134 0.377,-0.146 0.134,-0.013 0.28,0.013 0.437,0.075 0.156,0.064 0.334,0.175 0.536,0.334 L 3.841,6.518 C 3.882,6.55 3.932,6.562 3.99,6.551 4.049,6.54 4.119,6.504 4.201,6.443 4.284,6.381 4.385,6.285 4.507,6.152 4.628,6.021 4.77,5.854 4.932,5.649 5.094,5.445 5.223,5.272 5.319,5.13 5.415,4.987 5.486,4.866 5.532,4.767 5.577,4.668 5.599,4.588 5.596,4.528 5.593,4.469 5.57,4.424 5.529,4.391 Z"
       style="display:inline;fill:#2c5dab;fill-opacity:1;fill-rule:nonzero;stroke:none"
       transform="matrix(1.3333333,0,0,-1.3333333,253.22,111.01787)" />
    <path
       id="path32"
       d="m 0,0 -0.005,0.009 -4.688,-0.417 1.808,-3.313 z m -3.604,-8.933 c -0.126,-0.162 -0.233,-0.279 -0.32,-0.349 -0.086,-0.072 -0.172,-0.086 -0.256,-0.047 -0.085,0.041 -0.178,0.141 -0.282,0.304 -0.103,0.162 -0.235,0.391 -0.397,0.685 -0.167,0.307 -0.295,0.548 -0.381,0.724 -0.087,0.176 -0.145,0.313 -0.173,0.415 -0.029,0.102 -0.035,0.181 -0.019,0.236 0.017,0.057 0.049,0.113 0.096,0.17 l 1.361,1.764 -2.396,4.387 -2.147,-0.211 c -0.078,-0.011 -0.149,-0.009 -0.213,0.005 -0.066,0.016 -0.134,0.061 -0.207,0.134 -0.073,0.074 -0.158,0.189 -0.254,0.342 -0.097,0.155 -0.215,0.362 -0.357,0.62 -0.151,0.276 -0.263,0.498 -0.335,0.662 -0.071,0.164 -0.097,0.29 -0.076,0.379 0.02,0.089 0.082,0.151 0.189,0.186 0.106,0.034 0.258,0.06 0.459,0.075 L 0.561,2.264 C 0.659,2.271 0.745,2.262 0.819,2.24 0.894,2.22 0.973,2.162 1.055,2.07 1.138,1.979 1.233,1.843 1.343,1.659 1.451,1.476 1.59,1.231 1.758,0.925 1.951,0.569 2.103,0.285 2.211,0.07 2.318,-0.145 2.393,-0.317 2.431,-0.448 2.471,-0.58 2.478,-0.685 2.455,-0.763 2.433,-0.843 2.389,-0.924 2.32,-1.007 Z"
       style="display:inline;fill:#2c5dab;fill-opacity:1;fill-rule:nonzero;stroke:none"
       transform="matrix(1.3333333,0,0,-1.3333333,265.8464,117.65973)" />
    <path
       id="path33"
       d="M 0,0 C -0.095,0.005 -0.178,0.025 -0.246,0.062 -0.315,0.097 -0.383,0.168 -0.447,0.277 -0.513,0.387 -0.581,0.541 -0.653,0.74 -0.726,0.941 -0.814,1.204 -0.919,1.53 -1.003,1.792 -1.073,2.017 -1.13,2.203 -1.187,2.39 -1.231,2.551 -1.264,2.685 -1.296,2.818 -1.314,2.93 -1.32,3.018 c -0.006,0.086 -0.004,0.165 0.008,0.228 0.012,0.066 0.035,0.12 0.068,0.162 0.032,0.044 0.077,0.089 0.134,0.135 l 7.363,6.518 c 0.154,0.135 0.281,0.228 0.381,0.278 0.098,0.05 0.187,0.042 0.265,-0.023 C 6.979,10.251 7.056,10.123 7.131,9.931 7.206,9.738 7.3,9.466 7.413,9.113 7.509,8.814 7.579,8.577 7.624,8.403 7.668,8.23 7.692,8.094 7.697,7.995 7.701,7.896 7.685,7.819 7.646,7.768 7.607,7.717 7.557,7.662 7.492,7.606 L 1.022,2.132 1.026,2.121 9.416,1.47 C 9.509,1.471 9.588,1.46 9.652,1.438 9.717,1.415 9.779,1.362 9.841,1.276 9.9,1.192 9.964,1.063 10.03,0.889 c 0.067,-0.173 0.149,-0.412 0.247,-0.72 0.097,-0.301 0.164,-0.537 0.202,-0.708 0.039,-0.171 0.039,-0.297 0.001,-0.377 -0.037,-0.081 -0.112,-0.127 -0.223,-0.137 -0.112,-0.01 -0.269,-0.004 -0.468,0.018 z"
       style="display:inline;fill:#2c5dab;fill-opacity:1;fill-rule:nonzero;stroke:none"
       transform="matrix(1.3333333,0,0,-1.3333333,264.14973,140.708)" />
    <path
       id="path34"
       d="M 0,0 C 0.092,-0.077 0.167,-0.153 0.227,-0.23 0.287,-0.309 0.339,-0.404 0.384,-0.519 0.429,-0.634 0.468,-0.774 0.502,-0.942 0.536,-1.11 0.573,-1.32 0.613,-1.571 0.662,-1.882 0.685,-2.127 0.681,-2.306 0.677,-2.482 0.655,-2.607 0.617,-2.679 0.578,-2.752 0.524,-2.776 0.457,-2.751 0.39,-2.728 0.315,-2.673 0.233,-2.589 l -1.906,2.012 c -0.056,0.059 -0.108,0.124 -0.152,0.189 -0.045,0.065 -0.087,0.148 -0.127,0.246 -0.038,0.097 -0.075,0.217 -0.108,0.358 -0.033,0.14 -0.066,0.316 -0.098,0.525 -0.037,0.232 -0.058,0.417 -0.065,0.558 -0.006,0.142 0.003,0.244 0.028,0.307 0.024,0.062 0.063,0.09 0.118,0.085 0.054,-0.005 0.122,-0.043 0.208,-0.112 z m -12.343,-2.677 c -0.052,-0.007 -0.102,0.008 -0.15,0.045 -0.048,0.037 -0.093,0.106 -0.135,0.203 -0.042,0.097 -0.084,0.23 -0.126,0.396 -0.043,0.167 -0.085,0.384 -0.126,0.647 -0.041,0.257 -0.066,0.474 -0.079,0.649 -0.012,0.175 -0.012,0.315 -0.003,0.422 0.01,0.105 0.032,0.183 0.067,0.234 0.035,0.051 0.077,0.079 0.129,0.088 L -3.295,1.5 c 0.052,0.009 0.102,-0.006 0.15,-0.045 0.048,-0.036 0.094,-0.106 0.136,-0.206 0.042,-0.103 0.085,-0.236 0.127,-0.402 0.042,-0.168 0.083,-0.38 0.124,-0.637 0.042,-0.265 0.069,-0.482 0.079,-0.654 0.012,-0.171 0.013,-0.312 0.002,-0.416 -0.01,-0.107 -0.031,-0.184 -0.066,-0.234 -0.034,-0.052 -0.077,-0.081 -0.129,-0.089 z"
       style="display:inline;fill:#2c5dab;fill-opacity:1;fill-rule:nonzero;stroke:none"
       transform="matrix(1.3333333,0,0,-1.3333333,283.19267,149.902)" />
    <path
       id="path35"
       d="m 0,0 c -0.057,-0.002 -0.108,0.017 -0.152,0.054 -0.045,0.037 -0.083,0.109 -0.114,0.216 -0.029,0.105 -0.052,0.25 -0.07,0.435 -0.018,0.186 -0.027,0.418 -0.031,0.699 -0.005,0.447 0.005,0.767 0.029,0.962 0.025,0.197 0.063,0.338 0.113,0.424 0.052,0.086 0.114,0.153 0.187,0.202 L 4.737,7.065 -0.08,7.015 c -0.058,-10e-4 -0.108,0.019 -0.149,0.059 -0.043,0.041 -0.08,0.114 -0.109,0.215 -0.03,0.103 -0.054,0.239 -0.071,0.411 -0.018,0.171 -0.028,0.391 -0.03,0.659 -0.002,0.26 0.002,0.479 0.016,0.653 0.014,0.175 0.035,0.314 0.063,0.417 0.027,0.103 0.062,0.176 0.103,0.222 0.042,0.046 0.091,0.069 0.149,0.069 L 9.456,9.819 C 9.514,9.82 9.563,9.798 9.605,9.754 9.647,9.71 9.683,9.637 9.71,9.533 9.737,9.432 9.76,9.292 9.777,9.118 9.795,8.943 9.805,8.726 9.808,8.465 9.811,8.197 9.805,7.979 9.791,7.807 9.776,7.635 9.757,7.497 9.732,7.396 9.707,7.291 9.674,7.219 9.633,7.177 9.591,7.137 9.542,7.114 9.484,7.114 L 5.161,7.069 9.517,3.216 C 9.585,3.169 9.643,3.11 9.687,3.043 9.732,2.974 9.769,2.885 9.796,2.775 9.823,2.667 9.843,2.525 9.855,2.354 9.867,2.183 9.875,1.964 9.877,1.697 9.881,1.422 9.875,1.195 9.861,1.018 9.848,0.839 9.827,0.695 9.799,0.589 9.771,0.483 9.736,0.409 9.695,0.367 9.654,0.325 9.607,0.305 9.555,0.304 9.466,0.304 9.374,0.334 9.279,0.394 9.185,0.454 9.034,0.57 8.828,0.739 L 5.142,4.353 0.594,0.324 C 0.381,0.171 0.239,0.079 0.169,0.047 0.099,0.016 0.043,-0.001 0,0"
       style="display:inline;fill:#2c5dab;fill-opacity:1;fill-rule:nonzero;stroke:none"
       transform="matrix(1.3333333,0,0,-1.3333333,267.64587,171.91107)" />
    <path
       id="path36"
       d="m 0,0 c -0.611,0.118 -1.136,0.341 -1.573,0.669 -0.438,0.328 -0.78,0.753 -1.027,1.276 -0.245,0.521 -0.391,1.137 -0.437,1.843 -0.045,0.708 0.016,1.498 0.184,2.374 0.158,0.822 0.377,1.544 0.66,2.167 0.282,0.624 0.625,1.131 1.03,1.521 0.405,0.39 0.868,0.659 1.39,0.806 0.52,0.15 1.099,0.161 1.736,0.04 L 8.027,9.533 C 8.079,9.523 8.122,9.494 8.155,9.446 8.188,9.397 8.208,9.319 8.214,9.209 8.22,9.1 8.213,8.96 8.196,8.788 8.18,8.616 8.146,8.399 8.096,8.138 8.047,7.881 7.998,7.671 7.951,7.505 7.903,7.34 7.856,7.209 7.812,7.112 7.767,7.017 7.72,6.951 7.67,6.915 7.62,6.879 7.569,6.866 7.518,6.876 L 1.631,8.005 C 1.235,8.08 0.88,8.082 0.565,8.011 0.25,7.938 -0.025,7.801 -0.261,7.598 -0.497,7.396 -0.693,7.136 -0.854,6.821 -1.013,6.506 -1.131,6.143 -1.209,5.731 -1.289,5.313 -1.313,4.931 -1.278,4.583 -1.244,4.233 -1.154,3.927 -1.012,3.661 -0.868,3.397 -0.671,3.176 -0.42,2.999 -0.169,2.821 0.131,2.699 0.48,2.631 L 6.483,1.48 C 6.535,1.471 6.577,1.442 6.61,1.394 6.644,1.345 6.664,1.269 6.67,1.162 6.676,1.056 6.671,0.915 6.653,0.74 6.636,0.565 6.603,0.351 6.554,0.095 6.504,-0.161 6.456,-0.37 6.409,-0.532 6.362,-0.694 6.316,-0.824 6.271,-0.919 6.226,-1.016 6.179,-1.08 6.13,-1.112 6.081,-1.146 6.031,-1.156 5.98,-1.147 Z"
       style="display:inline;fill:#2c5dab;fill-opacity:1;fill-rule:nonzero;stroke:none"
       transform="matrix(1.3333333,0,0,-1.3333333,269.15107,190.5816)" />
    <path
       id="path37"
       d="M 0,0 C 0.309,-0.129 0.607,-0.146 0.896,-0.053 1.186,0.043 1.461,0.279 1.723,0.662 1.8,0.778 1.88,0.914 1.961,1.068 2.043,1.225 2.145,1.444 2.263,1.729 L 2.731,2.849 0.076,3.961 -0.457,2.689 C -0.604,2.335 -0.702,2.012 -0.748,1.719 -0.795,1.426 -0.796,1.165 -0.752,0.938 -0.707,0.712 -0.622,0.52 -0.495,0.362 -0.367,0.205 -0.203,0.085 0,0 m -7.701,-0.558 c -0.054,0.023 -0.093,0.054 -0.118,0.094 -0.027,0.041 -0.032,0.113 -0.016,0.219 0.016,0.104 0.057,0.251 0.125,0.438 0.066,0.188 0.166,0.44 0.299,0.756 0.111,0.266 0.205,0.476 0.28,0.63 0.076,0.154 0.147,0.271 0.211,0.352 0.066,0.081 0.127,0.131 0.183,0.152 0.057,0.021 0.12,0.031 0.188,0.033 l 2.553,0.225 c 0.292,0.034 0.556,0.076 0.793,0.126 0.236,0.05 0.448,0.126 0.636,0.23 0.188,0.104 0.355,0.243 0.504,0.419 0.146,0.177 0.276,0.398 0.387,0.662 l 0.325,0.779 -3.568,1.494 c -0.048,0.02 -0.083,0.058 -0.104,0.116 -0.022,0.058 -0.025,0.139 -0.008,0.243 0.014,0.105 0.049,0.239 0.1,0.403 0.051,0.166 0.129,0.371 0.233,0.618 0.1,0.24 0.191,0.438 0.274,0.592 0.081,0.157 0.154,0.276 0.219,0.361 0.063,0.085 0.122,0.138 0.177,0.161 0.054,0.02 0.105,0.022 0.154,0.002 L 4.63,4.987 C 4.843,4.898 4.967,4.763 5.001,4.581 5.035,4.399 5.009,4.204 4.921,3.996 L 3.591,0.816 C 3.455,0.494 3.34,0.23 3.242,0.025 3.146,-0.18 3.055,-0.364 2.969,-0.528 2.709,-1.001 2.431,-1.405 2.136,-1.747 1.84,-2.088 1.528,-2.353 1.204,-2.54 0.879,-2.728 0.542,-2.832 0.194,-2.858 c -0.347,-0.026 -0.708,0.04 -1.08,0.195 -0.313,0.132 -0.577,0.303 -0.791,0.516 -0.216,0.211 -0.381,0.461 -0.499,0.749 -0.118,0.288 -0.189,0.61 -0.214,0.971 -0.026,0.361 -0.005,0.748 0.063,1.167 C -2.472,0.585 -2.626,0.446 -2.79,0.325 -2.954,0.205 -3.135,0.102 -3.332,0.017 -3.528,-0.068 -3.742,-0.137 -3.971,-0.189 -4.2,-0.242 -4.45,-0.283 -4.723,-0.311 l -2.279,-0.26 c -0.223,-0.019 -0.383,-0.026 -0.48,-0.022 -0.098,0.003 -0.171,0.015 -0.219,0.035"
       style="display:inline;fill:#2c5dab;fill-opacity:1;fill-rule:nonzero;stroke:none"
       transform="matrix(1.3333333,0,0,-1.3333333,268.056,206.2132)" />
    <path
       id="path38"
       d="m 0,0 c -0.248,-0.489 -0.581,-0.87 -1,-1.143 -0.417,-0.272 -0.896,-0.437 -1.437,-0.496 -0.54,-0.057 -1.131,-0.011 -1.776,0.138 -0.641,0.149 -1.312,0.4 -2.01,0.753 -0.367,0.186 -0.708,0.38 -1.02,0.582 -0.313,0.202 -0.587,0.396 -0.823,0.583 -0.237,0.187 -0.425,0.351 -0.566,0.488 -0.141,0.14 -0.229,0.24 -0.264,0.301 -0.034,0.061 -0.052,0.119 -0.055,0.173 -0.004,0.055 0.002,0.115 0.015,0.182 0.015,0.065 0.04,0.144 0.08,0.236 0.039,0.092 0.089,0.198 0.15,0.319 0.066,0.131 0.129,0.239 0.187,0.323 0.058,0.086 0.115,0.149 0.171,0.191 0.056,0.042 0.109,0.065 0.157,0.071 0.047,0.005 0.097,-0.006 0.146,-0.031 0.062,-0.03 0.141,-0.104 0.238,-0.221 0.099,-0.118 0.235,-0.261 0.407,-0.429 0.171,-0.169 0.39,-0.356 0.658,-0.557 0.266,-0.203 0.604,-0.407 1.014,-0.614 0.356,-0.181 0.692,-0.316 1.011,-0.407 0.32,-0.091 0.612,-0.126 0.876,-0.104 0.265,0.021 0.498,0.099 0.703,0.229 0.205,0.131 0.373,0.328 0.506,0.589 0.113,0.224 0.168,0.447 0.164,0.668 -0.004,0.222 -0.072,0.443 -0.207,0.663 -0.135,0.22 -0.341,0.44 -0.623,0.659 -0.281,0.218 -0.644,0.44 -1.092,0.666 -0.356,0.18 -0.685,0.329 -0.99,0.448 -0.305,0.119 -0.586,0.244 -0.843,0.373 -0.177,0.09 -0.287,0.187 -0.33,0.294 -0.043,0.107 -0.016,0.251 0.075,0.432 l 1.991,3.936 c 0.093,0.186 0.209,0.297 0.345,0.331 0.136,0.033 0.309,-0.003 0.516,-0.107 L 2.003,6.673 C 2.057,6.645 2.102,6.604 2.137,6.552 2.172,6.499 2.189,6.434 2.193,6.356 2.196,6.278 2.18,6.186 2.145,6.078 2.108,5.97 2.056,5.845 1.986,5.705 1.845,5.425 1.709,5.238 1.581,5.145 1.453,5.052 1.328,5.035 1.205,5.098 l -4.223,2.135 -0.981,-1.94 c 0.224,-0.09 0.443,-0.186 0.655,-0.287 0.215,-0.103 0.437,-0.212 0.67,-0.33 0.643,-0.324 1.185,-0.671 1.625,-1.037 0.443,-0.367 0.776,-0.747 1.003,-1.14 C 0.182,2.104 0.301,1.699 0.312,1.28 0.323,0.86 0.22,0.435 0,0"
       style="display:inline;fill:#2c5dab;fill-opacity:1;fill-rule:nonzero;stroke:none"
       transform="matrix(1.3333333,0,0,-1.3333333,134.27867,256.17933)" />
    <path
       id="path39"
       d="M 0,0 C 0.087,0.252 0.134,0.482 0.141,0.693 0.147,0.904 0.108,1.097 0.023,1.272 -0.062,1.448 -0.199,1.605 -0.392,1.746 -0.583,1.887 -0.83,2.009 -1.135,2.112 -1.317,2.175 -1.5,2.224 -1.684,2.259 -1.867,2.294 -2.051,2.318 -2.235,2.332 -2.419,2.345 -2.6,2.347 -2.776,2.339 -2.953,2.33 -3.122,2.314 -3.281,2.291 -3.462,1.762 -3.574,1.307 -3.618,0.927 -3.66,0.546 -3.642,0.226 -3.561,-0.034 c 0.082,-0.261 0.223,-0.474 0.423,-0.639 0.201,-0.165 0.454,-0.3 0.76,-0.404 0.298,-0.103 0.572,-0.15 0.826,-0.143 0.252,0.008 0.479,0.064 0.682,0.165 0.201,0.103 0.376,0.243 0.524,0.423 C -0.197,-0.454 -0.082,-0.243 0,0 M 2.575,-0.674 C 2.41,-1.159 2.159,-1.575 1.822,-1.922 1.486,-2.269 1.079,-2.527 0.601,-2.698 c -0.479,-0.17 -1.024,-0.246 -1.633,-0.229 -0.612,0.019 -1.277,0.151 -1.996,0.397 -0.584,0.199 -1.076,0.425 -1.477,0.675 -0.399,0.25 -0.725,0.524 -0.978,0.824 -0.253,0.3 -0.434,0.619 -0.542,0.961 -0.108,0.341 -0.164,0.703 -0.167,1.085 -0.003,0.382 0.042,0.782 0.132,1.198 0.093,0.417 0.216,0.85 0.37,1.301 0.128,0.376 0.287,0.76 0.477,1.155 0.189,0.394 0.421,0.766 0.695,1.113 0.276,0.349 0.602,0.658 0.977,0.931 0.376,0.272 0.81,0.475 1.3,0.608 0.492,0.134 1.049,0.182 1.671,0.147 C 0.052,7.432 0.753,7.28 1.531,7.014 1.777,6.93 2.021,6.834 2.265,6.726 2.506,6.618 2.729,6.511 2.931,6.402 3.133,6.295 3.302,6.192 3.436,6.097 3.569,6.002 3.656,5.929 3.693,5.881 3.73,5.832 3.756,5.783 3.769,5.734 3.779,5.687 3.786,5.636 3.786,5.583 3.787,5.53 3.779,5.468 3.762,5.397 3.744,5.325 3.718,5.24 3.685,5.142 3.632,4.988 3.584,4.861 3.539,4.765 3.494,4.666 3.449,4.593 3.404,4.545 3.358,4.497 3.309,4.468 3.256,4.459 3.201,4.45 3.142,4.456 3.077,4.478 2.999,4.505 2.904,4.555 2.791,4.63 2.68,4.704 2.542,4.791 2.381,4.891 2.219,4.99 2.024,5.096 1.798,5.206 1.571,5.316 1.302,5.426 0.991,5.532 0.466,5.712 -0.005,5.79 -0.419,5.765 -0.833,5.741 -1.196,5.641 -1.511,5.463 -1.826,5.286 -2.093,5.047 -2.312,4.746 -2.529,4.445 -2.708,4.107 -2.842,3.733 -2.677,3.754 -2.488,3.767 -2.279,3.773 -2.071,3.779 -1.85,3.77 -1.615,3.745 -1.381,3.72 -1.132,3.681 -0.867,3.626 -0.604,3.571 -0.328,3.495 -0.043,3.398 0.593,3.181 1.114,2.927 1.522,2.639 1.932,2.349 2.238,2.031 2.442,1.686 2.646,1.339 2.756,0.967 2.773,0.568 2.788,0.17 2.723,-0.243 2.575,-0.674"
       style="display:inline;fill:#2c5dab;fill-opacity:1;fill-rule:nonzero;stroke:none"
       transform="matrix(1.3333333,0,0,-1.3333333,146.17707,260.71053)" />
    <path
       id="path40"
       d="m 0,0 c -0.026,-0.144 -0.059,-0.265 -0.097,-0.361 -0.039,-0.096 -0.082,-0.171 -0.13,-0.223 -0.048,-0.053 -0.097,-0.088 -0.15,-0.104 -0.052,-0.018 -0.108,-0.02 -0.169,-0.01 l -7.225,1.323 c -0.054,0.01 -0.102,0.032 -0.145,0.066 -0.042,0.035 -0.077,0.085 -0.104,0.151 -0.025,0.065 -0.04,0.151 -0.042,0.255 -0.001,0.104 0.011,0.228 0.039,0.372 0.026,0.149 0.057,0.273 0.092,0.37 0.035,0.098 0.077,0.174 0.126,0.228 0.048,0.055 0.1,0.092 0.152,0.113 0.051,0.018 0.108,0.023 0.17,0.011 l 2.438,-0.446 1.19,6.499 -2.267,-0.503 C -6.289,7.713 -6.421,7.702 -6.521,7.707 -6.622,7.712 -6.696,7.742 -6.745,7.796 -6.796,7.851 -6.819,7.934 -6.82,8.045 c -10e-4,0.111 0.017,0.265 0.052,0.461 0.023,0.123 0.045,0.224 0.066,0.304 0.021,0.078 0.052,0.142 0.089,0.194 0.037,0.052 0.082,0.092 0.136,0.119 0.054,0.027 0.124,0.055 0.213,0.08 l 3.069,0.875 c 0.037,0.014 0.082,0.024 0.135,0.026 0.053,0.003 0.12,0.002 0.203,-0.004 0.083,-0.008 0.19,-0.022 0.322,-0.043 0.133,-0.022 0.303,-0.052 0.512,-0.09 C -1.768,9.92 -1.561,9.878 -1.403,9.841 -1.247,9.805 -1.129,9.77 -1.052,9.737 -0.974,9.704 -0.925,9.67 -0.903,9.634 -0.882,9.598 -0.875,9.558 -0.884,9.511 L -2.394,1.26 -0.259,0.869 C -0.198,0.857 -0.145,0.833 -0.1,0.796 -0.055,0.759 -0.018,0.706 0.007,0.637 0.033,0.568 0.045,0.482 0.044,0.379 0.042,0.275 0.028,0.149 0,0"
       style="display:inline;fill:#2c5dab;fill-opacity:1;fill-rule:nonzero;stroke:none"
       transform="matrix(1.3333333,0,0,-1.3333333,164.11973,268.06213)" />
    <path
       id="path41"
       d="M 0,0 C -0.018,0.481 -0.052,0.905 -0.099,1.272 -0.147,1.64 -0.213,1.958 -0.295,2.227 -0.377,2.496 -0.475,2.723 -0.588,2.907 -0.701,3.091 -0.836,3.236 -0.99,3.344 -1.145,3.449 -1.32,3.523 -1.514,3.563 -1.707,3.604 -1.92,3.618 -2.153,3.61 -2.558,3.594 -2.89,3.508 -3.147,3.349 -3.405,3.189 -3.605,2.958 -3.749,2.655 -3.892,2.351 -3.986,1.976 -4.031,1.529 -4.076,1.082 -4.088,0.563 -4.064,-0.027 c 0.026,-0.722 0.086,-1.317 0.178,-1.787 0.095,-0.471 0.228,-0.843 0.4,-1.117 0.17,-0.272 0.384,-0.461 0.642,-0.564 0.258,-0.103 0.567,-0.148 0.922,-0.134 0.267,0.01 0.502,0.052 0.705,0.125 0.203,0.073 0.38,0.178 0.529,0.315 0.149,0.136 0.272,0.305 0.367,0.507 0.096,0.203 0.171,0.436 0.226,0.701 0.055,0.263 0.089,0.56 0.101,0.89 C 0.017,-0.761 0.016,-0.396 0,0 M 2.721,0.204 C 2.751,-0.605 2.692,-1.341 2.547,-2.001 2.399,-2.66 2.142,-3.228 1.771,-3.702 c -0.37,-0.474 -0.86,-0.846 -1.47,-1.115 -0.613,-0.269 -1.366,-0.42 -2.264,-0.454 -0.912,-0.035 -1.67,0.056 -2.275,0.271 -0.606,0.216 -1.091,0.54 -1.457,0.974 -0.367,0.433 -0.633,0.97 -0.797,1.611 -0.165,0.64 -0.262,1.368 -0.294,2.184 -0.029,0.804 0.03,1.539 0.181,2.201 0.149,0.663 0.409,1.231 0.779,1.705 0.37,0.475 0.859,0.847 1.472,1.116 0.61,0.269 1.362,0.421 2.252,0.454 C -1.19,5.279 -0.431,5.188 0.179,4.974 0.787,4.758 1.274,4.434 1.642,3.999 2.008,3.565 2.271,3.029 2.433,2.389 2.594,1.748 2.69,1.021 2.721,0.204"
       style="display:inline;fill:#2c5dab;fill-opacity:1;fill-rule:nonzero;stroke:none"
       transform="matrix(1.3333333,0,0,-1.3333333,183.3164,262.91493)" />
    <path
       id="path42"
       d="M 0,0 C -0.104,0.471 -0.213,0.882 -0.326,1.233 -0.44,1.587 -0.561,1.889 -0.689,2.138 -0.82,2.389 -0.956,2.594 -1.101,2.754 -1.245,2.915 -1.404,3.034 -1.575,3.111 -1.747,3.188 -1.932,3.229 -2.129,3.233 -2.327,3.237 -2.54,3.215 -2.768,3.164 -3.162,3.076 -3.473,2.932 -3.698,2.729 -3.924,2.525 -4.079,2.262 -4.166,1.938 -4.251,1.613 -4.276,1.228 -4.24,0.78 c 0.035,-0.447 0.117,-0.96 0.246,-1.537 0.155,-0.705 0.322,-1.28 0.499,-1.725 0.175,-0.447 0.373,-0.789 0.591,-1.027 0.217,-0.238 0.463,-0.385 0.735,-0.44 0.272,-0.054 0.582,-0.043 0.931,0.034 0.26,0.059 0.485,0.141 0.672,0.249 0.185,0.108 0.34,0.243 0.462,0.404 0.123,0.161 0.212,0.351 0.27,0.567 0.058,0.216 0.09,0.459 0.097,0.729 0.006,0.269 -0.015,0.568 -0.062,0.894 C 0.153,-0.745 0.086,-0.388 0,0 M 2.64,0.69 C 2.815,-0.101 2.89,-0.835 2.864,-1.51 2.838,-2.186 2.686,-2.79 2.407,-3.323 2.129,-3.856 1.714,-4.311 1.16,-4.685 0.607,-5.059 -0.107,-5.344 -0.983,-5.538 -1.875,-5.736 -2.637,-5.783 -3.271,-5.68 c -0.634,0.103 -1.17,0.335 -1.609,0.696 -0.438,0.361 -0.796,0.841 -1.073,1.442 -0.277,0.6 -0.503,1.298 -0.68,2.095 -0.175,0.786 -0.249,1.519 -0.22,2.198 0.029,0.679 0.183,1.285 0.46,1.818 0.28,0.534 0.696,0.988 1.248,1.362 0.553,0.374 1.264,0.658 2.135,0.851 0.89,0.197 1.655,0.244 2.292,0.143 C -0.081,4.822 0.457,4.591 0.895,4.23 1.334,3.869 1.689,3.388 1.963,2.787 2.237,2.186 2.463,1.487 2.64,0.69"
       style="display:inline;fill:#2c5dab;fill-opacity:1;fill-rule:nonzero;stroke:none"
       transform="matrix(1.3333333,0,0,-1.3333333,199.83067,260.30427)" />
    <path
       id="path43"
       d="M 0,0 C -0.188,0.443 -0.37,0.827 -0.546,1.153 -0.722,1.48 -0.896,1.755 -1.067,1.978 -1.239,2.199 -1.411,2.376 -1.582,2.508 -1.755,2.641 -1.931,2.729 -2.113,2.773 -2.296,2.818 -2.485,2.824 -2.681,2.793 -2.876,2.762 -3.081,2.7 -3.296,2.609 -3.668,2.451 -3.947,2.252 -4.132,2.013 -4.316,1.772 -4.423,1.485 -4.448,1.149 c -0.027,-0.335 0.019,-0.717 0.135,-1.152 0.117,-0.434 0.292,-0.922 0.521,-1.467 0.282,-0.664 0.549,-1.199 0.803,-1.606 0.255,-0.406 0.51,-0.707 0.767,-0.903 0.258,-0.194 0.526,-0.293 0.804,-0.298 0.277,-0.004 0.579,0.062 0.908,0.202 0.247,0.103 0.451,0.226 0.616,0.367 0.165,0.141 0.291,0.301 0.382,0.481 0.091,0.181 0.146,0.383 0.162,0.606 0.018,0.223 0.005,0.468 -0.036,0.733 C 0.572,-1.621 0.498,-1.332 0.392,-1.019 0.284,-0.706 0.154,-0.366 0,0 M 2.47,1.157 C 2.786,0.41 2.992,-0.297 3.089,-0.966 3.187,-1.636 3.146,-2.258 2.97,-2.832 2.791,-3.407 2.465,-3.93 1.99,-4.397 1.515,-4.866 0.862,-5.275 0.034,-5.625 -0.805,-5.981 -1.546,-6.166 -2.188,-6.18 -2.83,-6.192 -3.4,-6.062 -3.896,-5.787 c -0.497,0.276 -0.936,0.683 -1.317,1.224 -0.382,0.54 -0.731,1.185 -1.05,1.937 -0.313,0.741 -0.518,1.449 -0.613,2.122 -0.095,0.672 -0.054,1.296 0.123,1.871 0.178,0.575 0.504,1.097 0.98,1.566 0.475,0.467 1.125,0.876 1.946,1.223 0.839,0.356 1.582,0.541 2.226,0.557 C -0.955,4.727 -0.383,4.597 0.112,4.321 0.609,4.046 1.047,3.638 1.425,3.096 1.804,2.555 2.15,1.908 2.47,1.157"
       style="display:inline;fill:#2c5dab;fill-opacity:1;fill-rule:nonzero;stroke:none"
       transform="matrix(1.3333333,0,0,-1.3333333,215.58853,254.7444)" />
    <path
       id="path44"
       d="m 0,0 c -0.262,0.404 -0.508,0.751 -0.738,1.041 -0.23,0.291 -0.45,0.53 -0.657,0.719 -0.209,0.188 -0.41,0.333 -0.602,0.433 -0.191,0.1 -0.381,0.156 -0.568,0.167 C -2.753,2.373 -2.94,2.347 -3.127,2.281 -3.313,2.216 -3.505,2.12 -3.7,1.992 -4.04,1.772 -4.279,1.527 -4.419,1.258 -4.56,0.989 -4.612,0.688 -4.58,0.354 c 0.034,-0.334 0.146,-0.705 0.336,-1.111 0.191,-0.406 0.448,-0.857 0.77,-1.353 0.393,-0.606 0.75,-1.085 1.073,-1.441 0.321,-0.356 0.625,-0.607 0.913,-0.755 0.287,-0.146 0.568,-0.197 0.842,-0.153 0.274,0.044 0.561,0.163 0.86,0.357 0.224,0.147 0.405,0.303 0.541,0.47 0.138,0.167 0.234,0.347 0.293,0.541 0.057,0.194 0.076,0.403 0.053,0.625 C 1.08,-2.243 1.024,-2.005 0.937,-1.75 0.849,-1.495 0.725,-1.223 0.565,-0.934 0.404,-0.644 0.218,-0.333 0,0 M 2.23,1.572 C 2.672,0.893 3,0.231 3.212,-0.409 3.425,-1.052 3.495,-1.671 3.421,-2.268 3.348,-2.864 3.117,-3.437 2.73,-3.98 2.345,-4.524 1.774,-5.042 1.021,-5.532 0.257,-6.029 -0.44,-6.341 -1.07,-6.467 c -0.63,-0.126 -1.214,-0.096 -1.75,0.088 -0.538,0.184 -1.041,0.509 -1.511,0.974 -0.47,0.465 -0.928,1.039 -1.372,1.723 -0.44,0.675 -0.765,1.336 -0.977,1.982 -0.212,0.645 -0.28,1.266 -0.206,1.864 0.073,0.598 0.304,1.167 0.69,1.712 0.386,0.545 0.953,1.061 1.701,1.547 0.765,0.497 1.464,0.808 2.096,0.937 0.632,0.127 1.218,0.099 1.754,-0.086 C -0.106,4.09 0.395,3.765 0.861,3.299 1.329,2.832 1.786,2.256 2.23,1.572"
       style="display:inline;fill:#2c5dab;fill-opacity:1;fill-rule:nonzero;stroke:none"
       transform="matrix(1.3333333,0,0,-1.3333333,230.0924,246.47613)" />
    <path
       id="path48"
       d="m 77.657,62.303 c 0,-1.684 1.365,-3.048 3.047,-3.048 v 0 c 1.682,0 3.047,1.364 3.047,3.048 v 0 c 0,1.683 -1.365,3.047 -3.047,3.047 v 0 c -1.682,0 -3.047,-1.364 -3.047,-3.047"
       transform="matrix(1.3333333,0,0,-1.3333333,0,313.984)"
       style="display:inline;opacity:1;fill:url(#linearGradient48);stroke:none" />
    <path
       id="path53"
       d="m 183.879,64.278 c 0,-1.683 1.367,-3.046 3.046,-3.046 v 0 c 1.684,0 3.05,1.363 3.05,3.046 v 0 c 0,1.684 -1.366,3.047 -3.05,3.047 v 0 c -1.679,0 -3.046,-1.363 -3.046,-3.047"
       transform="matrix(1.3333333,0,0,-1.3333333,0,313.984)"
       style="display:inline;fill:url(#linearGradient53);stroke:none" />
  </g>
</svg>
