<svg width="300" height="120" viewBox="0 0 300 120" xmlns="http://www.w3.org/2000/svg">
  <path d="M14 66
           C34 40 70 30 110 32
           C136 34 160 40 178 46
           C196 52 214 54 234 48
           C252 42 266 32 274 20
           C278 14 286 12 292 16
           C298 20 300 30 296 38
           C284 64 258 82 230 90
           C202 98 176 96 150 88
           C128 82 106 78 88 80
           C66 82 50 90 36 104
           C30 110 20 110 14 104
           C8 98 8 74 14 66 Z" />
  <path d="M196 24
           C206 18 222 20 230 28
           C236 34 236 44 230 48
           C222 52 214 44 208 40
           C202 36 196 36 190 38
           C184 40 178 38 176 32
           C174 26 184 22 196 24 Z" />
  <path d="M64 84
           C52 90 44 104 42 116
           C40 124 32 128 24 126
           C16 124 12 116 14 108
           C18 92 32 78 50 70
           C58 66 68 70 70 78
           C72 86 70 80 64 84 Z" />
</svg>
