<svg width="400" height="800" viewBox="0 0 400 800" xmlns="http://www.w3.org/2000/svg">
  <path d="M200,40
           C140,40 110,180 110,320
           C110,500 160,620 200,680
           C240,620 290,500 290,320
           C290,180 260,40 200,40 Z" fill="#1a1a1a"/>

  <path d="M115,280
           C60,280 40,360 112,410
           L118,340 Z" fill="#1a1a1a"/>

  <path d="M285,280
           C340,280 360,360 288,410
           L282,340 Z" fill="#1a1a1a"/>

  <path d="M200,670
           C160,670 100,720 100,750
           C100,770 150,760 200,730
           C250,760 300,770 300,750
           C300,720 240,670 200,670 Z" fill="#1a1a1a"/>

  <path d="M162,120 C155,120 145,150 160,185 C170,160 175,130 162,120 Z" fill="white" opacity="0.9"/>
  <path d="M238,120 C245,120 255,150 240,185 C230,160 225,130 238,120 Z" fill="white" opacity="0.9"/>

  <path d="M165,420 Q200,380 235,420 Q200,460 165,420" fill="#444" opacity="0.5"/>

  <line x1="200" y1="300" x2="200" y2="450" stroke="#333" stroke-width="2" stroke-linecap="round"/>
</svg>
